<svg xmlns="http://www.w3.org/2000/svg" xmlns:xlink="http://www.w3.org/1999/xlink" id="Layer_1" width="38" height="44" x="0" style="enable-background:new 0 0 38 44" y="0" version="1.1" viewBox="0 0 38 44" xml:space="preserve"><style type="text/css">.st0{fill:#605668}.st1{fill:#51425b}</style><path d="M37.3,22.2c-0.5-0.3-1.2-0.1-1.4,0.4L19,41.5L2.1,22.6c-0.3-0.5-0.9-0.6-1.4-0.4c-0.5,0.3-0.7,0.9-0.4,1.3	L18,43.4c0.2,0.3,0.6,0.5,1,0.5s0.8-0.2,1-0.5l17.7-19.8C38,23.1,37.8,22.5,37.3,22.2z" class="st0"/><path d="M18,21.4c0.2,0.3,0.6,0.5,1,0.5s0.8-0.2,1-0.5L37.7,1.6c0.3-0.5,0.1-1.1-0.4-1.3c-0.5-0.3-1.2-0.1-1.4,0.4	L19,19.5L2.1,0.6C1.8,0.1,1.2,0,0.7,0.2C0.2,0.5,0,1.1,0.3,1.6L18,21.4z" class="st1"/></svg>