<svg xmlns="http://www.w3.org/2000/svg" xmlns:xlink="http://www.w3.org/1999/xlink" width="420" height="325" x="0" y="0" version="1.1" viewBox="0 0 420 325" xml:space="preserve" style="enable-background:new 0 0 420 325"><style type="text/css">.st0{fill:#3e253c}</style><g id="APP_DESIGN"><g><path d="M124,142H39v8h85V142z M91,148H72v-4h19V148z" class="st0"/><rect width="69" height="33" x="47" y="217" class="st0"/><path d="M370,149.5c2.8,0,5-2.2,5-5s-2.2-5-5-5s-5,2.2-5,5S367.2,149.5,370,149.5z" class="st0"/><rect width="84" height="49" x="156" y="175" class="st0"/><path d="M124,127c0-1.1-0.9-2-2-2H41c-1.1,0-2,0.9-2,2v11h85V127z M81.5,133c-1.1,0-2-0.9-2-2c0-1.1,0.9-2,2-2 s2,0.9,2,2C83.5,132.1,82.6,133,81.5,133z" class="st0"/><rect width="84" height="49" x="255" y="175" class="st0"/><path d="M85,263c0-1.6-1.3-3-3-3s-3,1.3-3,3s1.3,3,3,3S85,264.7,85,263z" class="st0"/><path d="M124,250v-96H39v96h4v-37h77v37H124z M43,208v-49h77v49H43z" class="st0"/><path d="M80,304v-32h42c1.1,0,2-0.9,2-2v-16H39v16c0,1.1,0.9,2,2,2h32v4H41c-3.3,0-6-2.7-6-6V127c0-3.3,2.7-6,6-6h71 V55c0-3.3,2.8-6,6.2-6H208V0H0v325h208v-21H80z M75,263c0-3.9,3.1-7,7-7s7,3.1,7,7s-3.1,7-7,7S75,266.9,75,263z" class="st0"/><rect width="69" height="29" x="47" y="163" class="st0"/><rect width="69" height="8" x="47" y="196" class="st0"/><rect width="84" height="11" x="156" y="147" class="st0"/><rect width="84" height="44" x="156" y="99" class="st0"/><rect width="84" height="44" x="255" y="99" class="st0"/><path d="M152,171h92v53h7v-53h92v53h12V83H140v141h12V171z M251,95h92v67h-92V95z M152,95h92v67h-92V95z" class="st0"/><path d="M212,0v53h-93.8c-1.2,0-2.2,1-2.2,2v66h6c3.3,0,6,2.7,6,6v109h251c1.1,0,2-0.9,2-2V55c0-1.1-0.9-2-2-2H219v-4 h160c3.3,0,6,2.7,6,6v179c0,3.3-2.7,6-6,6H128v30c0,3.3-2.7,6-6,6H84v24h128v25h208V0H212z M370,135.5c5,0,9,4,9,9s-4,9-9,9 s-9-4-9-9S365,135.5,370,135.5z M359,61v167H136V61H359z" class="st0"/><rect width="84" height="11" x="255" y="147" class="st0"/><path d="M355,65H140v14h215V65z M261,74h-26v-4h26V74z" class="st0"/></g></g></svg>